PathFileType	4	(X/Y/Z)	C:/Users/alexw/Dropbox/ABI/BIOMENG 771 Files/BIOMENG_771/KinematicsLab/Right.trc	
DataRate	CameraRate	NumFrames	NumMarkers	Units	OrigDataRate	OrigDataStartFrame	OrigNumFrames	
120.00	120.00	46	8	mm	120.00	25	1623	
Frame#	Time	RAsis			LAsis			RPsis			LPsis			RThighInferior			RThighLateral			RPatella			RThighSuperior			
		X1	Y1	Z1	X2	Y2	Z2	X3	Y3	Z3	X4	Y4	Z4	X5	Y5	Z5	X6	Y6	Z6	X7	Y7	Z7	X8	Y8	Z8	

1	0.000	-475.41803	142.63628	1036.77881	-214.92770	95.21069	997.86890	-323.86572	324.31430	964.65692	-267.19327	312.10101	965.32666	-474.01657	151.34950	577.68011	-465.36700	106.02840	673.72461	-435.63620	116.66368	507.38403	-515.76752	199.67035	816.35675 
2	0.008	-475.28912	142.51700	1036.75134	-214.80119	95.06938	997.84216	-323.80222	324.11444	964.73047	-267.10773	311.97888	965.35205	-473.97238	151.31268	577.71741	-465.25406	105.98813	673.72705	-435.58527	116.61893	507.37036	-515.62073	199.59421	816.30872 
3	0.017	-475.16528	142.29457	1036.76135	-214.65311	94.98772	997.85242	-323.73221	324.00568	964.77881	-267.04807	311.88373	965.41656	-473.94562	151.27078	577.77136	-465.11829	105.88271	673.73926	-435.49216	116.54945	507.36917	-515.37994	199.37198	816.28485 
4	0.025	-475.00543	142.12608	1036.76648	-214.54538	94.90461	997.86969	-323.64291	323.91309	964.81152	-266.97318	311.80542	965.40692	-473.91568	151.18141	577.76782	-465.02368	105.75871	673.73718	-435.42587	116.50133	507.37726	-515.30688	199.26636	816.26746 
5	0.033	-474.86926	141.93674	1036.71375	-214.34222	94.78928	997.84937	-323.58044	323.81808	964.83795	-266.84488	311.69818	965.40137	-473.79611	151.07387	577.80756	-464.87961	105.65343	673.68939	-435.33255	116.36568	507.32428	-515.25549	199.12976	816.25800 
6	0.042	-474.69983	141.73453	1036.65173	-214.23433	94.66199	997.79767	-323.44556	323.66492	964.83722	-266.73657	311.56927	965.40778	-473.73328	150.94380	577.76440	-464.75262	105.55047	673.67194	-435.23810	116.29992	507.30457	-515.21802	199.09149	816.33002 
7	0.050	-474.53482	141.52693	1036.57336	-214.13797	94.51517	997.70203	-323.34015	323.56174	964.83234	-266.58524	311.42407	965.41949	-473.69174	150.85295	577.80200	-464.73306	105.46642	673.65302	-435.17386	116.17583	507.22238	-515.28790	199.04382	816.45905 
8	0.058	-474.42032	141.32330	1036.55444	-213.99892	94.37482	997.68408	-323.20511	323.43256	964.83148	-266.51825	311.29401	965.44958	-473.62100	150.77881	577.76288	-464.60022	105.32628	673.63147	-435.12015	116.16539	507.17267	-515.28314	198.94177	816.46954 
9	0.067	-474.29559	141.14983	1036.50891	-213.84091	94.22124	997.65570	-323.12762	323.25195	964.86475	-266.41287	311.13559	965.42755	-473.52029	150.64606	577.76135	-464.52313	105.25449	673.60223	-435.07227	116.08202	507.19638	-515.26508	198.85120	816.51660 
10	0.075	-474.21182	141.03220	1036.51428	-213.73193	94.07001	997.65393	-323.05884	323.11685	964.88116	-266.32370	311.01709	965.47217	-473.49545	150.56451	577.75635	-464.46231	105.15338	673.53534	-435.02805	116.01752	507.17407	-515.21594	198.84032	816.65918 
11	0.083	-474.15308	140.90076	1036.50146	-213.61772	93.95176	997.63959	-322.96625	323.05734	964.91040	-266.24152	310.93314	965.49969	-473.44070	150.46625	577.72681	-464.38156	105.05267	673.58026	-434.98575	115.89001	507.16748	-515.22406	198.73979	816.73370 
12	0.092	-474.08316	140.75987	1036.52124	-213.51288	93.79785	997.61743	-322.84598	322.85760	964.90491	-266.16736	310.77029	965.52454	-473.41122	150.40947	577.77783	-464.38321	104.98408	673.58820	-435.00443	115.85194	507.18622	-515.21136	198.58292	816.80341 
13	0.100	-474.01089	140.63391	1036.55542	-213.36571	93.69573	997.63049	-322.73889	322.73581	964.94568	-266.09100	310.67413	965.59393	-473.31335	150.31659	577.78052	-464.29517	104.88478	673.59729	-434.97012	115.79945	507.21622	-514.84943	198.47939	816.77863 
14	0.108	-473.89200	140.49600	1036.61414	-213.22743	93.60844	997.61707	-322.71765	322.65573	964.89612	-265.98694	310.55783	965.57941	-473.30014	150.24457	577.84528	-464.26727	104.83383	673.65149	-434.93176	115.71738	507.21927	-514.61566	198.36288	816.72766 
15	0.117	-473.80304	140.33563	1036.63818	-213.15875	93.49832	997.59576	-322.60422	322.52844	964.90338	-265.91348	310.43732	965.65472	-473.27600	150.13179	577.90216	-464.23459	104.73586	673.67694	-434.96106	115.66690	507.26584	-514.58179	198.27545	816.68671 
16	0.125	-473.70627	140.22490	1036.61060	-213.00775	93.41425	997.61896	-322.48624	322.41818	964.94525	-265.81027	310.33725	965.69885	-473.22574	150.06543	577.93805	-464.20563	104.64635	673.68372	-434.92947	115.54942	507.26529	-514.57123	198.19923	816.78290 
17	0.133	-473.53787	140.00725	1036.59070	-212.89836	93.34988	997.58014	-322.41144	322.31207	964.97687	-265.77438	310.23306	965.70233	-473.21295	149.92488	577.87793	-464.07990	104.53616	673.67462	-434.85196	115.47373	507.20154	-514.26379	197.99541	816.86127 
18	0.142	-473.39542	139.85266	1036.51831	-212.75287	93.21304	997.54169	-322.26846	322.19339	964.99872	-265.70059	310.11569	965.70142	-473.08871	149.76793	577.87787	-464.04645	104.40878	673.67554	-434.78003	115.38522	507.16721	-513.99774	197.78329	816.74408 
19	0.150	-473.28204	139.70383	1036.47485	-212.65056	93.14991	997.42963	-322.23224	322.06168	965.02277	-265.62061	309.98630	965.73956	-473.04807	149.64790	577.83026	-463.96960	104.24364	673.64337	-434.75073	115.25963	507.09747	-513.74677	197.48416	816.68439 
20	0.158	-473.09769	139.59566	1036.38586	-212.55032	93.03062	997.40204	-322.08105	321.93784	965.07642	-265.46237	309.92883	965.75897	-472.96918	149.53185	577.79504	-463.87274	104.11565	673.59576	-434.67603	115.22191	507.07578	-513.62140	197.40337	816.69232 
21	0.167	-472.98492	139.44333	1036.35461	-212.36600	92.93851	997.39337	-322.02216	321.82764	965.09375	-265.40579	309.79422	965.75958	-472.86896	149.41568	577.77911	-463.68991	103.94658	673.53284	-434.58023	115.12331	507.02399	-513.55664	197.31969	816.71826 
22	0.175	-472.84232	139.30797	1036.32312	-212.21002	92.85904	997.32654	-321.95169	321.76447	965.06799	-265.31613	309.72424	965.78137	-472.78024	149.30836	577.77026	-463.64651	103.90278	673.48785	-434.51248	115.02874	507.01193	-513.59583	197.25072	816.81799 
23	0.183	-472.73108	139.17874	1036.26758	-212.13400	92.78730	997.27747	-321.84149	321.61105	965.12799	-265.26587	309.60620	965.75635	-472.70746	149.20068	577.73242	-463.53088	103.68523	673.55414	-434.42245	114.97996	506.99039	-513.64886	197.13904	816.86346 
24	0.192	-472.62579	139.10222	1036.28015	-212.01208	92.75367	997.24426	-321.69104	321.46594	965.14929	-265.14050	309.50311	965.75775	-472.63721	149.14751	577.74487	-463.37964	103.63153	673.58362	-434.37524	114.87936	507.01205	-513.54175	197.05540	816.88910 
25	0.200	-472.55432	139.03990	1036.25598	-211.90526	92.70794	997.25897	-321.56113	321.43872	965.14453	-264.98004	309.41116	965.75793	-472.56900	149.07460	577.81946	-463.30231	103.54482	673.60297	-434.31342	114.85404	507.00964	-513.46216	196.96126	816.91205 
26	0.208	-472.51413	138.97647	1036.29895	-211.74850	92.62999	997.23608	-321.43353	321.29922	965.17877	-264.84753	309.28775	965.70813	-472.50568	149.02454	577.85156	-463.16956	103.52937	673.63641	-434.28760	114.85204	507.01971	-513.43048	196.94456	816.97382 
27	0.217	-472.45752	138.95784	1036.30286	-211.64488	92.57060	997.22015	-321.31259	321.14594	965.16406	-264.68137	309.16696	965.73077	-472.46701	148.96007	577.87964	-463.14615	103.42027	673.70862	-434.34662	114.97005	507.02454	-513.46368	196.92896	817.04712 
28	0.225	-472.39444	138.95416	1036.30676	-211.55130	92.48437	997.23523	-321.15359	321.08688	965.19165	-264.48816	309.07315	965.74335	-472.44174	148.91371	577.88452	-463.10223	103.36890	673.73431	-434.24698	114.76373	507.09323	-513.37384	196.86330	817.02155 
29	0.233	-472.33337	138.90892	1036.29614	-211.49321	92.40152	997.15588	-320.96237	321.03259	965.17609	-264.33380	308.97318	965.74750	-472.37485	148.91336	577.91962	-463.05060	103.25945	673.76062	-434.20300	114.68163	507.12308	-513.20648	196.76045	816.98407 
30	0.242	-472.26639	138.90294	1036.27332	-211.42068	92.27823	997.12848	-320.86163	320.92822	965.19983	-264.18491	308.91174	965.79175	-472.32709	148.83859	577.89099	-463.02332	103.24747	673.76996	-434.12704	114.64854	507.07187	-513.12494	196.76642	817.01917 
31	0.250	-472.18579	138.91719	1036.27356	-211.33139	92.17282	997.05994	-320.63806	320.89359	965.19043	-264.02420	308.82242	965.79175	-472.23367	148.81560	577.92200	-463.00470	103.22498	673.77344	-434.10718	114.58556	507.13889	-513.00232	196.82042	816.99664 
32	0.258	-472.15750	138.92896	1036.25403	-211.28020	92.05502	997.01172	-320.38489	320.76422	965.16388	-263.80881	308.70889	965.79987	-472.25113	148.80450	577.86328	-462.99039	103.18196	673.78333	-434.14636	114.52904	507.12939	-512.95441	196.80629	817.04675 
33	0.267	-472.12842	138.97066	1036.23767	-211.22633	91.95532	996.96722	-320.19809	320.70175	965.12872	-263.63116	308.66010	965.80585	-472.18274	148.73425	577.86932	-462.99014	103.16624	673.79803	-434.13229	114.47624	507.14874	-513.35486	196.69684	817.39111 
34	0.275	-472.08389	139.08356	1036.17944	-211.16992	91.86035	996.92181	-320.06705	320.65826	965.08820	-263.44873	308.54437	965.84326	-472.10681	148.74919	577.84113	-462.97211	103.15599	673.78802	-434.14139	114.52885	507.15369	-513.70996	196.93776	817.66833 
35	0.283	-472.02298	139.16034	1036.13086	-211.14862	91.81576	996.86432	-319.91510	320.66623	965.10571	-263.31241	308.50357	965.87708	-472.04831	148.77388	577.90070	-462.94275	103.20130	673.78912	-434.07159	114.53931	507.13342	-513.98938	197.22054	817.90601 
36	0.292	-471.99542	139.31654	1036.10010	-211.07268	91.71637	996.84772	-319.68298	320.61530	965.06952	-263.13562	308.46024	965.87823	-472.03058	148.83890	577.93646	-462.93939	103.24238	673.84625	-434.04587	114.55697	507.14243	-512.01025	196.99361	817.28845 
37	0.300	-471.94800	139.42113	1036.06226	-211.04175	91.69511	996.76837	-319.37637	320.66907	965.08447	-262.94806	308.41034	965.88788	-472.00409	148.91287	578.01959	-462.88068	103.31537	673.83057	-433.99112	114.60329	507.09546	-510.28787	196.33771	816.25421 
38	0.308	-471.90720	139.55269	1036.01135	-211.01639	91.56084	996.74554	-319.08286	320.63425	965.08655	-262.71625	308.31683	965.90527	-471.93790	148.96942	578.03442	-462.85583	103.41451	673.83789	-433.99884	114.65135	507.07275	-509.61118	196.07376	815.86072 
39	0.317	-471.85596	139.70692	1035.93713	-210.98766	91.50075	996.71259	-318.80209	320.58508	965.05206	-262.51865	308.22607	965.92773	-471.88675	149.10207	578.03235	-462.77716	103.47471	673.84558	-433.90854	114.70128	507.09100	-509.84912	196.31847	816.06238 
40	0.325	-471.83261	139.89703	1035.90247	-210.96573	91.41708	996.65900	-318.50656	320.60413	965.08722	-262.20276	308.14130	965.91162	-471.86279	149.18571	578.09259	-462.73666	103.58943	673.87921	-433.93567	114.78700	507.10583	-510.44705	196.77557	816.44354 
41	0.333	-471.83585	140.06158	1035.84583	-210.90527	91.34016	996.61841	-318.20517	320.58548	965.09387	-261.95337	308.06635	965.94000	-471.81186	149.28885	578.15125	-462.73984	103.73177	673.91095	-433.87943	114.84219	507.11105	-510.94159	197.17163	816.75513 
42	0.342	-471.85376	140.23741	1035.81738	-210.92523	91.23472	996.57855	-317.85767	320.56180	965.09674	-261.74585	308.00195	965.93005	-471.72800	149.40742	578.21320	-462.66608	103.83014	673.92957	-433.82608	114.86774	507.16922	-511.55548	197.69139	816.91119 
43	0.350	-471.84067	140.39526	1035.78430	-211.00487	91.17191	996.49261	-317.56094	320.54965	965.11859	-261.46555	307.94858	965.99927	-471.73810	149.47646	578.29041	-462.62387	103.94088	673.97595	-433.77631	114.91234	507.20328	-511.53915	197.87407	817.06415 
44	0.358	-471.86002	140.59415	1035.70520	-211.02440	91.03182	996.45087	-317.29944	320.48599	965.14575	-261.22150	307.85403	966.00549	-471.65533	149.55991	578.22174	-462.54395	104.07656	673.94983	-433.78967	115.01299	507.18204	-511.43518	197.74826	817.17780 
45	0.367	-471.84335	140.79265	1035.64282	-211.07922	90.94429	996.40399	-317.03152	320.42841	965.17786	-260.92120	307.82248	966.07703	-471.57617	149.69987	578.17950	-462.53467	104.18443	673.96558	-433.75491	115.07810	507.16891	-511.38297	197.77599	817.18787 
46	0.375	-471.81622	140.94783	1035.53467	-211.14995	90.77583	996.31787	-316.74414	320.43600	965.20874	-260.71713	307.79065	966.11200	-471.51746	149.78929	578.20270	-462.46118	104.34683	673.96869	-433.74237	115.08447	507.23416	-511.46970	197.96561	817.25616 
